<svg width="180" height="40" viewBox="0 0 180 40" fill="none" xmlns="http://www.w3.org/2000/svg">
<path d="M175.876 23.0436C175.876 26.4889 178.277 26.8544 179.426 26.8544C179.791 26.8544 180 26.8022 180 26.8022V25.5493C180 25.5493 179.791 25.6015 179.53 25.6015C178.747 25.6015 177.233 25.2883 177.233 22.8869V17.6666H179.791V16.5182H177.233V13.6992H175.928V16.5182H174.571V17.6666H175.928V23.0436H175.876ZM162.982 21.6863C162.982 24.8707 165.279 27.0632 168.359 27.0632C170.969 27.0632 172.379 25.3927 172.379 25.3927L171.752 24.3486C171.752 24.3486 170.551 25.8103 168.463 25.8103C166.323 25.8103 164.444 24.2442 164.444 21.7385C164.444 19.2327 166.219 17.6144 168.411 17.6144C169.246 17.6144 170.76 18.0321 170.76 18.8673V19.4415H172.065V18.5019C172.065 16.8314 169.56 16.3094 168.411 16.3094C165.331 16.3094 162.982 18.5541 162.982 21.6863ZM150.714 23.0436C150.714 25.7059 151.706 27.011 154.16 27.011C156.404 27.011 157.762 25.4449 158.127 24.4008H158.179C158.179 24.4008 158.127 24.714 158.127 25.1317V25.6015C158.127 26.3845 158.493 26.75 159.38 26.75H160.789V25.5493H159.954C159.693 25.5493 159.484 25.3927 159.484 25.0795V16.466H158.127V21.373C158.127 23.6178 156.665 25.6537 154.368 25.6537C152.385 25.6537 152.124 24.2442 152.124 22.6259V17.6666C152.124 16.8314 151.758 16.466 150.871 16.466H149.409V17.6666H150.244C150.505 17.6666 150.714 17.8233 150.714 18.1365V23.0436ZM141.996 26.8022H143.354V22.4693C143.354 21.8429 143.458 21.112 143.615 20.4856C144.085 18.9717 145.129 17.8233 146.59 17.8233C146.851 17.8233 147.112 17.8755 147.112 17.8755V16.5182C147.112 16.5182 146.851 16.466 146.538 16.466C144.92 16.466 143.771 17.6666 143.301 19.1805H143.249C143.249 19.1805 143.301 18.8151 143.301 18.3975V17.7188C143.301 16.8836 142.936 16.5704 142.049 16.5704H140.639V17.771H141.474C141.735 17.771 141.944 17.9277 141.944 18.2409V26.8022H141.996ZM134.218 23.0436C134.218 26.4889 136.619 26.8544 137.768 26.8544C138.133 26.8544 138.342 26.8022 138.342 26.8022V25.5493C138.342 25.5493 138.133 25.6015 137.872 25.6015C137.089 25.6015 135.575 25.2883 135.575 22.8869V17.6666H138.133V16.5182H135.575V13.6992H134.218V16.5182H132.861V17.6666H134.218V23.0436ZM122.994 25.2361C122.994 25.2361 124.247 27.011 126.91 27.011C128.946 27.011 130.512 25.8625 130.512 24.1398C130.512 20.7466 124.769 21.2686 124.769 18.9717C124.769 17.9799 125.605 17.51 127.066 17.51C127.745 17.51 128.841 17.771 128.841 18.5541V19.0239H130.146V18.1365C130.146 16.6748 128.058 16.3094 127.014 16.3094C124.978 16.3094 123.36 17.249 123.36 19.0761C123.36 22.3649 129.102 21.9473 129.102 24.192C129.102 25.2883 128.058 25.8103 126.962 25.8103C124.926 25.8103 123.83 24.2442 123.83 24.2442L122.994 25.2361ZM110.518 26.8022H111.875V21.8951C111.875 21.4253 111.927 20.9554 112.032 20.4856C112.502 18.8151 114.016 17.6144 115.738 17.6144C117.722 17.6144 117.983 19.0239 117.983 20.6422V25.5493C117.983 26.4367 118.348 26.8022 119.236 26.8022H120.698V25.6015H119.862C119.601 25.6015 119.392 25.4449 119.392 25.1317V20.2768C119.392 17.771 118.505 16.3094 115.947 16.3094C113.546 16.3094 112.241 17.9799 111.875 18.9195H111.823C111.823 18.9195 111.875 18.6063 111.875 18.1887V17.7188C111.875 16.9358 111.51 16.5704 110.622 16.5704H109.213V17.771H110.048C110.309 17.771 110.518 17.9277 110.518 18.2409V26.8022ZM97.7282 21.5819C97.7282 19.2849 99.5031 17.51 101.748 17.51C103.94 17.51 105.715 19.2327 105.715 21.5819C105.715 23.9832 103.94 25.7581 101.748 25.7581C99.5031 25.7581 97.7282 23.9832 97.7282 21.5819ZM96.2666 21.5819C96.2666 24.6618 98.6679 27.011 101.696 27.011C104.671 27.011 107.073 24.714 107.073 21.5819C107.073 18.5541 104.671 16.2572 101.643 16.2572C98.7201 16.3094 96.2666 18.5541 96.2666 21.5819ZM84.6253 21.6863C84.6253 24.8707 86.9222 27.0632 90.0022 27.0632C92.6123 27.0632 94.0218 25.3927 94.0218 25.3927L93.3954 24.3486C93.3954 24.3486 92.1947 25.8103 90.1066 25.8103C87.9663 25.8103 86.087 24.2442 86.087 21.7385C86.087 19.2327 87.8619 17.6144 90.0544 17.6144C90.8896 17.6144 92.4035 18.0321 92.4035 18.8673V19.4415H93.7086V18.5019C93.7086 16.8314 91.2029 16.3094 90.0544 16.3094C86.9222 16.3094 84.6253 18.5541 84.6253 21.6863ZM71.5745 26.8022H74.1325V22.0517C74.1325 21.5819 74.1847 21.112 74.3413 20.6422C74.7067 19.3893 75.7508 18.5019 77.1081 18.5019C78.4131 18.5019 78.7263 19.3371 78.7263 20.6422V25.3927C78.7263 26.3845 79.144 26.75 80.0836 26.75H82.5372V24.5574H81.7019C81.4409 24.5574 81.2321 24.4008 81.2321 24.0876V20.1202C81.2321 17.3534 79.927 16.1527 77.6301 16.1527C75.542 16.1527 74.3935 17.4578 73.9759 18.2931H73.9237C73.9237 18.2931 73.9759 18.0843 73.9759 17.8233V17.51C73.9759 16.7792 73.5061 16.3616 72.6186 16.3616H70.2173V18.5541H71.0525C71.3135 18.5541 71.5223 18.7107 71.5223 19.0239V26.8022H71.5745ZM57.5841 23.0958C57.5841 25.9147 58.9414 27.0632 61.1861 27.0632C62.961 27.0632 64.2661 25.9669 64.7882 24.9229H64.8404C64.8404 24.9229 64.8404 25.1317 64.8404 25.3927V25.6537C64.8404 26.3845 65.3102 26.8022 66.1976 26.8022H68.599V24.6096H67.7637C67.5027 24.6096 67.2939 24.453 67.2939 24.1398V16.3616H64.7359V21.112C64.7359 22.9913 63.6919 24.6096 61.8126 24.6096C60.5075 24.6096 60.1943 23.7744 60.1943 22.4693V17.6666C60.1943 16.727 59.7767 16.3094 58.837 16.3094H56.3835V18.5019H57.2187C57.4797 18.5019 57.6885 18.6585 57.6885 18.9717V23.0958H57.5841ZM45.9429 25.1839C45.9429 25.1839 47.4046 27.011 50.2757 27.011C52.5205 27.011 54.2431 25.8103 54.2431 23.8266C54.2431 20.3812 48.7096 20.6944 48.7096 19.0761C48.7096 18.4497 49.3361 18.1365 50.2757 18.1365C50.85 18.1365 51.5808 18.3975 51.5808 18.8673V19.3893H53.8777V18.2931C53.8777 16.6226 51.633 16.1527 50.2235 16.1527C48.0832 16.1527 46.2039 17.0924 46.2039 19.1805C46.2039 22.5215 51.6852 22.5215 51.6852 23.9832C51.6852 24.6618 51.0588 25.0273 50.2757 25.0273C48.5008 25.0273 47.1957 23.5134 47.1957 23.5134L45.9429 25.1839Z" fill="#E69F02"/>
<path d="M21.2512 39.0172C20.8858 38.0253 21.9299 37.3467 22.9739 36.8246C26.6281 34.9453 28.403 31.3955 28.403 27.7935C28.403 24.8702 27.2546 21.8424 25.0098 19.5977C28.8729 22.5732 30.961 26.6973 30.5434 30.8735C30.2823 33.4315 28.8729 35.9372 26.9414 37.7121C25.8451 38.5473 24.6966 39.5914 23.0261 39.8524C22.1387 40.009 21.5122 39.8524 21.2512 39.0172Z" fill="#E69F02"/>
<path d="M28.1414 38.496C28.9245 37.9218 29.6553 37.2431 30.2296 36.5123C31.5346 34.894 32.3177 32.9625 32.5265 30.9266C32.5787 30.6133 32.5787 30.2479 32.5787 29.9347C32.5787 27.8466 32.0045 25.7063 30.8038 23.7225C29.3943 21.269 27.1496 19.1809 24.3306 17.6148C20.4676 15.4745 18.2751 12.3945 18.4317 9.21011C18.5361 6.54776 20.1544 4.14642 22.6601 2.99795C25.6879 1.58847 29.2899 2.21491 32.5265 4.77286C41.0356 11.4548 42.4973 23.8792 35.7631 32.4927C33.7794 34.9984 31.0648 37.1387 28.1414 38.496Z" fill="#E69F02"/>
<path d="M18.7964 1.69225C19.1618 2.68411 18.1178 3.36274 17.0737 3.88477C13.4195 5.76408 11.6446 9.3139 11.6446 12.9159C11.6446 15.8393 12.7931 18.867 15.0378 21.1118C11.1748 18.1362 9.08667 14.0122 9.50429 9.83591C9.76531 7.27797 11.1748 4.77223 13.1063 2.99733C14.2026 2.16208 15.351 1.11802 17.0215 0.857007C17.8568 0.752601 18.4832 0.909206 18.7964 1.69225Z" fill="#E69F02"/>
<path d="M11.8548 2.21484C11.0718 2.78908 10.3409 3.46772 9.76669 4.19856C8.46161 5.81685 7.67857 7.74837 7.46976 9.78429C7.41756 10.0975 7.41755 10.4629 7.41755 10.7761C7.41755 12.8643 7.99179 15.0046 9.19246 16.9883C10.6019 19.4418 12.8467 21.53 15.6656 23.096C19.5287 25.2364 21.7212 28.3163 21.5646 31.5007C21.4602 34.1631 19.8419 36.5644 17.3361 37.7129C14.3083 39.1224 10.7063 38.4959 7.46976 35.938C-1.03933 29.256 -2.50101 16.8317 4.23317 8.2182C6.26909 5.71245 8.93144 3.62432 11.8548 2.21484Z" fill="#E69F02"/>
</svg>
